<?xml version="1.0" encoding="UTF-8" standalone="no"?>
<!DOCTYPE svg PUBLIC "-//W3C//DTD SVG 1.1//EN" "http://www.w3.org/Graphics/SVG/1.1/DTD/svg11.dtd">
<svg width="100%" height="100%" viewBox="0 0 120 10" version="1.1" xmlns="http://www.w3.org/2000/svg" xmlns:xlink="http://www.w3.org/1999/xlink" xml:space="preserve" xmlns:serif="http://www.serif.com/" style="fill-rule:evenodd;clip-rule:evenodd;stroke-linejoin:round;stroke-miterlimit:2;">
    <path d="M0,8.958C9.844,6.923 19.786,5.454 29.757,4.176C32.252,3.871 34.746,3.562 37.245,3.301C39.744,3.041 42.242,2.736 44.745,2.516L52.262,1.857L59.782,1.303C61.04,1.201 62.293,1.108 63.547,1.039L67.315,0.778C69.826,0.603 72.337,0.396 74.852,0.269L78.625,0.107C79.882,0.074 81.144,0.025 82.401,0.009C84.916,-0.028 87.435,0.054 89.95,0.143C100.014,0.55 110.07,1.568 120,3.708L119.967,4.315C117.44,4.673 114.929,4.876 112.418,5.088C109.907,5.299 107.409,5.401 104.906,5.584C99.9,5.906 94.911,6.044 89.926,6.248C87.431,6.333 84.936,6.345 82.446,6.366L78.706,6.366L74.966,6.305C72.471,6.215 69.973,6.207 67.478,6.174C64.983,6.142 62.484,6.113 59.986,6.174L52.498,6.313L45.01,6.557C42.511,6.61 40.016,6.744 37.518,6.838C35.019,6.931 32.524,7.07 30.029,7.208C20.043,7.737 10.056,8.466 0.102,9.552L0,8.958Z" style="fill:rgb(109,139,240);fill-rule:nonzero;"/>
</svg>
